Coordinates
version=1
nRows=24
nColumns=38
inDegrees=no

Units are S.I. units (second, meters, Newtons, ...)
If the header above contains a line with 'inDegrees', this indicates whether rotational values are in degrees (yes) or radians (no).

endheader
time	pelvis_tilt	pelvis_list	pelvis_rotation	pelvis_tx	pelvis_ty	pelvis_tz	hip_flexion_r	hip_adduction_r	hip_rotation_r	knee_angle_r	ankle_angle_r	subtalar_angle_r	mtp_angle_r	hip_flexion_l	hip_adduction_l	hip_rotation_l	knee_angle_l	ankle_angle_l	subtalar_angle_l	mtp_angle_l	lumbar_extension	lumbar_bending	lumbar_rotation	arm_flex_r	arm_add_r	arm_rot_r	elbow_flex_r	pro_sup_r	wrist_flex_r	wrist_dev_r	arm_flex_l	arm_add_l	arm_rot_l	elbow_flex_l	pro_sup_l	wrist_flex_l	wrist_dev_l
0	0.000360073	-0.0269697	1.42821	0.542305	0.993937	-0.957374	0.0110795	-0.137858	0.0295303	0.0714731	0.0182057	0.0121511	0	-0.0679583	-0.0729227	-0.27902	0.022198	0.0647154	-0.0576891	0	-0.064249	0.0270732	0.0306326	0.290032	-1.30482	0.00424858	1.99371	1.28246	0	0.048846	-0.673232	-1.01735	-1.03615	2.03825	1.5708	0	0.048846
0.01	-4.48502e-05	-0.0263951	1.42785	0.542279	0.993993	-0.957433	0.0109952	-0.138482	0.0288763	0.0723162	0.0189515	0.0134841	0	-0.0690352	-0.0721135	-0.280942	0.0182464	0.0585915	-0.0595476	0	-0.0646681	0.02644	0.0307176	0.290406	-1.30466	0.00486272	1.99387	1.28291	0	0.048846	-0.67354	-1.01749	-1.03596	2.03827	1.5708	0	0.048846
0.02	-0.000419885	-0.0262985	1.42758	0.542237	0.99394	-0.957463	0.011751	-0.139045	0.027676	0.0737304	0.0201183	0.0152548	0	-0.0690053	-0.0716111	-0.280862	0.0184492	0.0584622	-0.0603173	0	-0.0646344	0.0258911	0.0305364	0.291594	-1.30465	0.00638147	1.994	1.28327	0	0.048846	-0.674018	-1.01758	-1.03602	2.03838	1.5708	0	0.048846
0.03	-0.000465721	-0.0261703	1.42736	0.542224	0.993914	-0.957466	0.0118674	-0.13914	0.027762	0.074106	0.0202493	0.0151734	0	-0.0690771	-0.071493	-0.280945	0.0186422	0.058662	-0.0607716	0	-0.0647092	0.0256971	0.0304338	0.292584	-1.30472	0.00766351	1.99416	1.2835	0	0.048846	-0.674409	-1.0177	-1.03591	2.03846	1.5708	0	0.048846
0.04	-0.000368041	-0.0258985	1.42716	0.542207	0.993942	-0.957462	0.0117083	-0.139105	0.0279048	0.0743217	0.020128	0.014827	0	-0.0693914	-0.07152	-0.281192	0.0187424	0.0590277	-0.0608718	0	-0.0649605	0.0256574	0.0302314	0.294212	-1.30481	0.00962243	1.99427	1.28373	0	0.048846	-0.674853	-1.01767	-1.03582	2.03856	1.5708	0	0.048846
0.05	-8.19659e-05	-0.0257522	1.42678	0.542193	0.993937	-0.957489	0.0114412	-0.13885	0.0284652	0.0740252	0.0198462	0.0145429	0	-0.0696974	-0.0717371	-0.28133	0.0186689	0.0589817	-0.0607714	0	-0.0651275	0.0258886	0.0301557	0.296089	-1.30514	0.011863	1.9943	1.28379	0	0.048846	-0.675302	-1.01739	-1.03611	2.03877	1.5708	0	0.048846
0.06	0.00016521	-0.0257434	1.42642	0.542176	0.993929	-0.957502	0.0112651	-0.138598	0.0291415	0.0736299	0.019682	0.0143252	0	-0.0698304	-0.07195	-0.281325	0.0186391	0.0589252	-0.0609245	0	-0.0651535	0.0260775	0.0301118	0.297425	-1.30544	0.013502	1.99431	1.28371	0	0.048846	-0.675716	-1.01713	-1.03648	2.039	1.5708	0	0.048846
0.07	6.87553e-05	-0.025635	1.42613	0.54213	0.993956	-0.957494	0.0114141	-0.138791	0.0290114	0.0740243	0.0199296	0.0146744	0	-0.0699981	-0.0717713	-0.281367	0.0186414	0.0589152	-0.0612967	0	-0.0652493	0.0258716	0.0300546	0.298073	-1.30571	0.0143331	1.99436	1.28363	0	0.048846	-0.675816	-1.01702	-1.03629	2.03913	1.5708	0	0.048846
0.08	-7.18498e-05	-0.0256501	1.42587	0.542087	0.993949	-0.957498	0.0115908	-0.139008	0.0290896	0.0741486	0.0200716	0.0150008	0	-0.0700059	-0.0715239	-0.281061	0.01856	0.058419	-0.062119	0	-0.0652275	0.0256596	0.0301317	0.297748	-1.30615	0.0141329	1.99444	1.28349	0	0.048846	-0.675593	-1.01702	-1.0358	2.03925	1.5708	0	0.048846
0.09	-0.000321971	-0.0259814	1.42564	0.542075	0.993908	-0.957499	0.0122276	-0.139284	0.0289276	0.0744459	0.0203279	0.0156325	0	-0.0695924	-0.0712412	-0.280806	0.0185932	0.0577645	-0.0636464	0	-0.0647476	0.0253088	0.0299318	0.29855	-1.30637	0.0152956	1.99423	1.28326	0	0.048846	-0.676074	-1.01686	-1.03625	2.03944	1.5708	0	0.048846
0.1	-0.000732384	-0.0263709	1.42537	0.542051	0.993898	-0.957498	0.0132832	-0.139784	0.0280757	0.0754398	0.0208253	0.0168763	0	-0.0690918	-0.0708311	-0.28113	0.0187723	0.0573044	-0.0653051	0	-0.0641018	0.0247699	0.0294511	0.300792	-1.30633	0.0179898	1.99377	1.28291	0	0.048846	-0.676957	-1.0164	-1.03736	2.0397	1.5708	0	0.048846
0.11	-0.000812918	-0.0264238	1.42501	0.542007	0.993908	-0.957503	0.0136571	-0.139942	0.0279848	0.0758569	0.0209317	0.0170995	0	-0.069062	-0.0706931	-0.281544	0.0188385	0.0572601	-0.0656469	0	-0.0640492	0.0246184	0.0296191	0.300298	-1.30674	0.0174405	1.9938	1.28282	0	0.048846	-0.676365	-1.01627	-1.03721	2.03982	1.5708	0	0.048846
0.12	-0.000754786	-0.0265712	1.42469	0.541955	0.993906	-0.95749	0.0139181	-0.1399	0.028201	0.0758456	0.0209365	0.0170934	0	-0.0689262	-0.0706715	-0.281444	0.0187896	0.0572817	-0.0652874	0	-0.0639885	0.0246495	0.0297789	0.299875	-1.3072	0.0168486	1.99381	1.28269	0	0.048846	-0.675789	-1.01612	-1.037	2.03993	1.5708	0	0.048846
0.13	-0.00088095	-0.0266736	1.42454	0.541913	0.993934	-0.957448	0.0142283	-0.140032	0.0282409	0.0760212	0.0208591	0.017133	0	-0.0686725	-0.0705335	-0.281214	0.0189605	0.0573432	-0.0653436	0	-0.0638773	0.0243706	0.02966	0.299897	-1.30729	0.0167549	1.99363	1.28246	0	0.048846	-0.67579	-1.0161	-1.0371	2.04007	1.5708	0	0.048846
0.14	-0.00102079	-0.0265409	1.42451	0.541887	0.993956	-0.957414	0.0142114	-0.140197	0.0282126	0.0761335	0.0208393	0.0170536	0	-0.0686759	-0.0703921	-0.281156	0.0191411	0.0572277	-0.0663371	0	-0.0639528	0.024009	0.0296559	0.298803	-1.30742	0.015479	1.99352	1.28219	0	0.048846	-0.675592	-1.01646	-1.03674	2.04011	1.5708	0	0.048846
0.15	-0.000959935	-0.0266139	1.42435	0.541846	0.993921	-0.957405	0.0143226	-0.140172	0.0281857	0.0760815	0.0207701	0.0171646	0	-0.0686666	-0.0703722	-0.281392	0.0189895	0.0568777	-0.0667726	0	-0.0638882	0.024025	0.0296224	0.298715	-1.3078	0.0151957	1.99343	1.28182	0	0.048846	-0.67545	-1.01643	-1.03674	2.04016	1.5708	0	0.048846
0.16	-0.000982464	-0.0267973	1.42414	0.541795	0.993899	-0.957383	0.0145882	-0.140248	0.0283154	0.076057	0.0206902	0.01731	0	-0.0685235	-0.0702499	-0.281669	0.0188916	0.0568351	-0.0665197	0	-0.0637535	0.0240153	0.0294924	0.299243	-1.3081	0.0154111	1.99339	1.28137	0	0.048846	-0.675302	-1.01617	-1.03706	2.0402	1.5708	0	0.048846
0.17	-0.00113527	-0.0267144	1.42407	0.541754	0.993937	-0.95735	0.0145618	-0.140478	0.0284209	0.0760567	0.0206951	0.0173401	0	-0.068609	-0.0699966	-0.281687	0.0188482	0.0571224	-0.0665398	0	-0.0638333	0.0237793	0.0294058	0.298946	-1.30824	0.0147035	1.99338	1.28093	0	0.048846	-0.674826	-1.01622	-1.03683	2.04011	1.5708	0	0.048846
0.18	-0.00108754	-0.0265775	1.424	0.541709	0.993958	-0.957332	0.0143967	-0.140498	0.0285303	0.0759233	0.0205911	0.0173932	0	-0.0688244	-0.0699437	-0.281555	0.018637	0.0570718	-0.066544	0	-0.0640604	0.023749	0.0291839	0.299547	-1.30838	0.014857	1.99333	1.28051	0	0.048846	-0.674627	-1.01608	-1.03709	2.04014	1.5708	0	0.048846
0.19	-0.000981405	-0.0263253	1.42396	0.54166	0.993932	-0.957293	0.0140986	-0.140466	0.0286244	0.0757827	0.0205477	0.0173785	0	-0.0691123	-0.069978	-0.28154	0.0185283	0.0568532	-0.0663564	0	-0.0644805	0.0237374	0.0289706	0.300027	-1.3086	0.0148182	1.99343	1.28021	0	0.048846	-0.674533	-1.01606	-1.03753	2.04017	1.5708	0	0.048846
0.2	-0.000925706	-0.0258919	1.42406	0.541608	0.99392	-0.957233	0.0136757	-0.140519	0.0284648	0.075837	0.0206053	0.0172817	0	-0.0695587	-0.0699661	-0.2816	0.0184945	0.0569631	-0.0662583	0	-0.0649745	0.0236478	0.0290541	0.298678	-1.30893	0.0129698	1.99363	1.27997	0	0.048846	-0.67374	-1.01662	-1.03668	2.03993	1.5708	0	0.048846
0.21	-0.000837559	-0.0257436	1.4241	0.541564	0.993907	-0.957191	0.0136279	-0.140502	0.0283806	0.0759606	0.020666	0.0172767	0	-0.0697061	-0.0699999	-0.281521	0.0184332	0.0569746	-0.066561	0	-0.0651536	0.0236656	0.0290858	0.297915	-1.30914	0.011756	1.99372	1.27968	0	0.048846	-0.672995	-1.01698	-1.03585	2.03973	1.5708	0	0.048846
0.22	-0.000862831	-0.0258144	1.42404	0.541552	0.993894	-0.957139	0.0138914	-0.140535	0.0285617	0.0761043	0.0207191	0.0172624	0	-0.069536	-0.0699336	-0.281449	0.0184885	0.0570419	-0.066688	0	-0.0651462	0.0235718	0.0290101	0.297808	-1.30914	0.0111585	1.99383	1.27946	0	0.048846	-0.672513	-1.01711	-1.03561	2.03965	1.5708	0	0.048846
0.23	-0.000954049	-0.0257857	1.42402	0.541535	0.993929	-0.957069	0.0140809	-0.140635	0.0287128	0.0763358	0.02066	0.0170878	0	-0.0694518	-0.0698022	-0.281466	0.0185942	0.0574965	-0.0663542	0	-0.0651716	0.0233953	0.0291513	0.296415	-1.30912	0.00926236	1.99405	1.27935	0	0.048846	-0.671399	-1.01751	-1.03452	2.03946	1.5708	0	0.048846
